<svg width="720" height="330" viewBox="0 0 720 330" fill="none" xmlns="http://www.w3.org/2000/svg" role="img" aria-labelledby="title desc">
  <title id="title">Most Used Languages</title>
  <desc id="desc">Real top language percentages for jibin7jose public repositories.</desc>
  <defs>
    <linearGradient id="card" x1="0" y1="0" x2="720" y2="330" gradientUnits="userSpaceOnUse">
      <stop stop-color="#070B16"/>
      <stop offset="0.55" stop-color="#111827"/>
      <stop offset="1" stop-color="#090E1A"/>
    </linearGradient>
    <linearGradient id="accent" x1="32" y1="0" x2="688" y2="0" gradientUnits="userSpaceOnUse">
      <stop stop-color="#00E5FF"/>
      <stop offset="0.46" stop-color="#7C7CFF"/>
      <stop offset="1" stop-color="#FF2BD6"/>
    </linearGradient>
    <filter id="softGlow" x="-20%" y="-60%" width="140%" height="220%">
      <feGaussianBlur stdDeviation="5" result="blur"/>
      <feMerge>
        <feMergeNode in="blur"/>
        <feMergeNode in="SourceGraphic"/>
      </feMerge>
    </filter>
  </defs>

  <rect width="720" height="330" rx="8" fill="url(#card)"/>
  <rect x="0.5" y="0.5" width="719" height="329" rx="7.5" stroke="#243043"/>
  <path d="M32 68H688" stroke="url(#accent)" stroke-width="2" stroke-linecap="round"/>
  <circle cx="646" cy="35" r="38" fill="#00E5FF" opacity="0.08"/>
  <circle cx="676" cy="58" r="62" fill="#FF2BD6" opacity="0.06"/>

  <text x="32" y="38" fill="#F8FAFC" font-family="Segoe UI, Arial, sans-serif" font-size="22" font-weight="700">Most Used Languages</text>
  <text x="32" y="57" fill="#94A3B8" font-family="Segoe UI, Arial, sans-serif" font-size="12">Real public repository language percentages</text>

  <g transform="translate(32 91)">
    <rect width="656" height="18" rx="9" fill="#101827"/>
    <g filter="url(#softGlow)">
      <rect x="0" y="0" width="372.9" height="18" rx="9" fill="#3178C6"/>
      <rect x="372.9" y="0" width="94.8" height="18" fill="#F1E05A"/>
      <rect x="467.7" y="0" width="58.6" height="18" fill="#DEA584"/>
      <rect x="526.3" y="0" width="49.1" height="18" fill="#563D7C"/>
      <rect x="575.4" y="0" width="47.0" height="18" fill="#E34C26"/>
      <rect x="622.4" y="0" width="16.9" height="18" fill="#3572A5"/>
      <rect x="639.3" y="0" width="6.4" height="18" fill="#00ADD8"/>
      <rect x="645.7" y="0" width="4.9" height="18" fill="#89E051"/>
      <rect x="650.6" y="0" width="3.3" height="18" fill="#012456"/>
      <rect x="653.9" y="0" width="2.1" height="18" rx="9" fill="#FF5D01"/>
    </g>
  </g>

  <g font-family="Segoe UI, Arial, sans-serif">
    <g transform="translate(32 132)">
      <circle cx="7" cy="7" r="6" fill="#3178C6"/>
      <text x="22" y="11" fill="#E5E7EB" font-size="14" font-weight="600">TypeScript</text>
      <text x="250" y="11" fill="#7DD3FC" font-size="13" font-weight="700" text-anchor="end">56.87%</text>
      <rect x="0" y="24" width="284" height="7" rx="3.5" fill="#1E293B"/>
      <rect x="0" y="24" width="161.5" height="7" rx="3.5" fill="#3178C6"/>
    </g>

    <g transform="translate(376 132)">
      <circle cx="7" cy="7" r="6" fill="#F1E05A"/>
      <text x="22" y="11" fill="#E5E7EB" font-size="14" font-weight="600">JavaScript</text>
      <text x="250" y="11" fill="#FFF085" font-size="13" font-weight="700" text-anchor="end">14.45%</text>
      <rect x="0" y="24" width="284" height="7" rx="3.5" fill="#1E293B"/>
      <rect x="0" y="24" width="41.0" height="7" rx="3.5" fill="#F1E05A"/>
    </g>

    <g transform="translate(32 172)">
      <circle cx="7" cy="7" r="6" fill="#DEA584"/>
      <text x="22" y="11" fill="#E5E7EB" font-size="14" font-weight="600">Rust</text>
      <text x="250" y="11" fill="#F7C8A5" font-size="13" font-weight="700" text-anchor="end">8.94%</text>
      <rect x="0" y="24" width="284" height="7" rx="3.5" fill="#1E293B"/>
      <rect x="0" y="24" width="25.4" height="7" rx="3.5" fill="#DEA584"/>
    </g>

    <g transform="translate(376 172)">
      <circle cx="7" cy="7" r="6" fill="#563D7C"/>
      <text x="22" y="11" fill="#E5E7EB" font-size="14" font-weight="600">CSS</text>
      <text x="250" y="11" fill="#C4B5FD" font-size="13" font-weight="700" text-anchor="end">7.48%</text>
      <rect x="0" y="24" width="284" height="7" rx="3.5" fill="#1E293B"/>
      <rect x="0" y="24" width="21.2" height="7" rx="3.5" fill="#563D7C"/>
    </g>

    <g transform="translate(32 212)">
      <circle cx="7" cy="7" r="6" fill="#E34C26"/>
      <text x="22" y="11" fill="#E5E7EB" font-size="14" font-weight="600">HTML</text>
      <text x="250" y="11" fill="#FF9B78" font-size="13" font-weight="700" text-anchor="end">7.17%</text>
      <rect x="0" y="24" width="284" height="7" rx="3.5" fill="#1E293B"/>
      <rect x="0" y="24" width="20.4" height="7" rx="3.5" fill="#E34C26"/>
    </g>

    <g transform="translate(376 212)">
      <circle cx="7" cy="7" r="6" fill="#3572A5"/>
      <text x="22" y="11" fill="#E5E7EB" font-size="14" font-weight="600">Python</text>
      <text x="250" y="11" fill="#93C5FD" font-size="13" font-weight="700" text-anchor="end">2.57%</text>
      <rect x="0" y="24" width="284" height="7" rx="3.5" fill="#1E293B"/>
      <rect x="0" y="24" width="7.3" height="7" rx="3.5" fill="#3572A5"/>
    </g>

    <g transform="translate(32 252)">
      <circle cx="7" cy="7" r="6" fill="#00ADD8"/>
      <text x="22" y="11" fill="#E5E7EB" font-size="14" font-weight="600">Go</text>
      <text x="250" y="11" fill="#67E8F9" font-size="13" font-weight="700" text-anchor="end">0.97%</text>
      <rect x="0" y="24" width="284" height="7" rx="3.5" fill="#1E293B"/>
      <rect x="0" y="24" width="2.8" height="7" rx="3.5" fill="#00ADD8"/>
    </g>

    <g transform="translate(376 252)">
      <circle cx="7" cy="7" r="6" fill="#89E051"/>
      <text x="22" y="11" fill="#E5E7EB" font-size="14" font-weight="600">Shell</text>
      <text x="250" y="11" fill="#BEF264" font-size="13" font-weight="700" text-anchor="end">0.74%</text>
      <rect x="0" y="24" width="284" height="7" rx="3.5" fill="#1E293B"/>
      <rect x="0" y="24" width="2.1" height="7" rx="3.5" fill="#89E051"/>
    </g>

    <g transform="translate(32 292)">
      <circle cx="7" cy="7" r="6" fill="#012456"/>
      <text x="22" y="11" fill="#E5E7EB" font-size="14" font-weight="600">PowerShell</text>
      <text x="250" y="11" fill="#93C5FD" font-size="13" font-weight="700" text-anchor="end">0.51%</text>
    </g>

    <g transform="translate(376 292)">
      <circle cx="7" cy="7" r="6" fill="#FF5D01"/>
      <text x="22" y="11" fill="#E5E7EB" font-size="14" font-weight="600">Astro</text>
      <text x="250" y="11" fill="#FDBA74" font-size="13" font-weight="700" text-anchor="end">0.32%</text>
    </g>
  </g>
</svg>
